<?xml version="1.0" encoding="UTF-8" standalone="no"?>
<svg width="500px" height="95px" viewBox="0 0 500 95" version="1.1" xmlns="http://www.w3.org/2000/svg" xmlns:xlink="http://www.w3.org/1999/xlink">
    <!-- Generator: Sketch 41.1 (35376) - http://www.bohemiancoding.com/sketch -->
    <title>LOGO_DINHEIRO_1280</title>
    <desc>Created with Sketch.</desc>
    <defs></defs>
    <g id="-HEADER" stroke="none" stroke-width="1" fill="none" fill-rule="evenodd">
        <g id="LOGO_DINHEIRO_1280">
            <rect id="Rectangle-Copy-11" x="0" y="0" width="500" height="95"></rect>
            <path d="M126.898599,83.9420627 C138.878762,83.9420627 139.614463,75.411893 139.614463,57.5849658 C139.614463,40.1407545 138.773994,31.5151949 126.6879,31.5151949 L119.856477,31.5151949 L119.856477,83.9420627 L126.898599,83.9420627 Z M108.927481,22.0265013 L126.793249,22.0265013 C134.990142,22.0265013 140.455513,24.0395173 143.923317,27.4908973 C150.228574,33.7195688 150.754158,44.5500804 150.754158,57.4884197 C150.754158,71.2898931 150.228574,82.4083087 143.292966,88.2536862 C139.719812,91.3211942 134.46514,93.0468842 126.58255,93.0468842 L108.927481,93.0468842 L108.927481,22.0265013 Z" id="Fill-2" fill="#D00018"></path>
            <polygon id="Fill-4" fill="#D00018" points="158.667313 44.5726546 168.841369 44.5726546 168.841369 93.0468842 158.667313 93.0468842"></polygon>
            <path d="M177.884975,44.7554084 L186.63861,44.3187212 L187.48184,48.9466808 C189.170058,45.6282051 192.861385,43.4453469 201.08727,43.4453469 C205.833513,43.4453469 208.891539,44.6676089 210.895235,46.5888013 C213.427269,49.2083465 214.059398,53.3135523 214.059398,58.5526428 L214.059398,93.0468842 L203.408203,93.0468842 L203.408203,61.6972524 C203.408203,53.9246833 202.037222,51.916269 196.973741,51.916269 C189.486709,51.916269 188.431792,56.4570066 188.431792,64.5778858 L188.431792,93.0468842 L177.884975,93.0468842 L177.884975,44.7554084 Z" id="Fill-6" fill="#D00018"></path>
            <path d="M223.103003,23.153809 L233.64972,23.153809 L233.64972,48.5831283 C235.54746,45.8953741 239.134036,43.8153459 246.306015,43.8153459 C251.051539,43.8153459 254.109987,45.0285046 256.114526,46.9353882 C258.644846,49.5354234 259.277426,53.6100542 259.277426,58.8095514 L259.277426,93.0468842 L248.625671,93.0468842 L248.625671,61.9313136 C248.625671,54.2160602 247.255472,52.2231776 242.192485,52.2231776 C234.704803,52.2231776 233.64972,56.7300965 233.64972,64.7904924 L233.64972,93.0468842 L223.103003,93.0468842 L223.103003,23.153809 Z" id="Fill-7" fill="#D00018"></path>
            <path d="M276.509924,61.1371899 L291.250014,61.2017153 C291.246548,58.3079548 291.239038,51.8897126 284.381435,51.8513462 C277.98428,51.8158863 276.497792,57.0145404 276.509924,61.1371899 M272.343945,90.861307 C266.941055,86.7293565 266.104508,78.8758603 266.061757,68.7354911 C266.02016,58.7474251 266.748672,51.8426265 271.495844,47.6141786 C274.300123,44.971544 278.72839,43.4037513 285.09897,43.4461869 C290.811521,43.4851347 294.627976,44.9099252 296.960832,47.3711911 C301.404697,52.0565486 301.099658,59.6676386 301.099658,68.7256088 L276.186975,68.6419002 C275.745593,84.150666 278.950237,86.1945514 286.360723,86.2009458 C291.079008,86.2067589 294.595623,84.8226602 297.164769,83.8629176 L300.857591,91.1606816 C296.154905,93.1702697 292.158777,94.1741919 284.981114,94.1741919 C279.830113,94.1741919 275.148802,93.0545891 272.343945,90.861307" id="Fill-8" fill="#D00018"></path>
            <path d="M309.017258,44.2568841 L319.191314,44.2568841 L319.191314,93.0468842 L309.017258,93.0468842 L309.017258,44.2568841 Z M309.017258,23.153809 L319.191314,23.153809 L319.191314,36.9328994 L309.017258,36.9328994 L309.017258,23.153809 Z" id="Fill-9" fill="#D00018"></path>
            <path d="M328.23492,45.376656 L337.170884,44.9453803 L338.130359,50.543978 C339.988344,46.5792079 344.709364,43.915681 351.809244,44.7143398 L351.974385,53.1099544 C342.479664,53.1099544 339.044258,56.5835494 339.044258,65.5490641 L339.044258,93.0468842 L328.23492,93.0468842 L328.23492,45.376656 Z" id="Fill-10" fill="#D00018"></path>
            <path d="M380.999346,69.0736666 C380.999346,58.5940939 380.585891,51.9885085 372.938689,51.9885085 C365.188983,51.9885085 364.671878,58.5940939 364.671878,69.0736666 C364.671878,79.6429527 365.188983,86.1599898 372.938689,86.1599898 C380.585891,86.1599898 380.999346,79.6429527 380.999346,69.0736666 M360.228667,90.4755534 C354.854324,86.0714415 354.235287,78.1452051 354.235287,68.8097694 C354.235287,59.7382309 354.751819,51.9885085 359.711562,47.4958483 C362.501525,45.0298952 366.634931,43.4453469 372.938689,43.4453469 C379.139943,43.4453469 383.375854,45.0298952 386.165244,47.4958483 C391.023055,51.9885085 391.54016,59.8261966 391.54016,68.8097694 C391.54016,78.0572394 391.023055,85.9834758 385.753507,90.2990394 C382.963544,92.6770268 378.933216,94.1741919 372.938689,94.1741919 C366.945308,94.1741919 362.91498,92.7655751 360.228667,90.4755534" id="Fill-11" fill="#D00018"></path>
            <path d="M212.928947,27.8839612 L212.928947,22.035329 L208.55707,22.035329 L209.369735,20.8991936 L206.358227,20.8991936 L205.546135,22.035329 L200.291623,22.035329 L200.291623,25.2769261 L201.996099,25.2769261 L201.996099,34.3339083 L200.291623,34.3339083 L200.291623,37.5755053 L212.928947,37.5755053 L212.928947,31.7939407 L209.015305,31.7939407 L209.015305,34.3339083 L205.909167,34.3339083 L205.909167,31.6271317 L208.249094,31.6271317 L208.249094,27.9837027 L205.909167,27.9837027 L205.909167,25.2769261 L209.015305,25.2769261 L209.015305,27.8839612 L212.928947,27.8839612 Z M193.909015,33.7899161 C191.694687,33.7899161 189.899597,31.9951432 189.899597,29.7819149 C189.899597,27.5663936 191.694687,25.7727672 193.909015,25.7727672 C196.125063,25.7727672 197.920727,27.5663936 197.920727,29.7819149 C197.920727,31.9951432 196.125063,33.7899161 193.909015,33.7899161 L193.909015,33.7899161 Z M193.909015,21.9218301 C192.427635,21.9218301 191.040884,22.3322604 189.85773,23.0447813 L189.85773,22.035329 L178.060027,22.035329 L178.041101,22.035329 L174.081005,22.035329 L174.081005,22.5477937 C174.081005,22.5477937 172.89441,21.8175028 171.251873,21.8175028 C168.185308,21.8175028 166.008259,24.0404761 166.008259,26.4382834 C166.008259,29.3881081 168.039636,30.3625935 170.471324,31.1748558 C171.474969,31.5079005 172.296238,31.7434967 172.79634,31.9722142 C173.424335,32.2594008 173.683562,32.7472167 173.683562,33.2115303 C173.683562,33.9756416 172.978716,34.5838351 172.127052,34.5838351 C170.354328,34.5838351 169.866843,32.4944237 169.866843,32.4944237 L165.941158,32.4955702 L165.940584,34.3430799 L165.940011,34.3362012 L164.284857,34.3339083 L164.284857,25.2769261 L166.157945,25.2769261 L166.157945,22.035329 L158.667313,22.035329 L158.667313,25.2769261 L160.371789,25.2769261 L160.371789,34.3339083 L158.667313,34.3339083 L158.667313,37.5755053 L165.940011,37.5755053 L166.394232,37.5755053 L166.394232,37.5743589 L169.866843,37.5743589 L169.866843,37.0280738 C169.866843,37.0280738 171.11079,37.8088086 172.975849,37.8088086 C175.779746,37.8088086 178.280256,35.8403481 178.280256,33.1587935 C178.280256,30.1745752 175.665617,29.0155108 173.875114,28.4898619 C172.988466,28.2301901 172.0026,27.9258068 171.469808,27.703968 C170.775859,27.4179279 170.471324,27.0281337 170.471324,26.4640786 C170.471324,25.5681253 171.29374,25.1513894 171.960733,25.1513894 C173.8711,25.1513894 174.217501,27.4001579 174.217501,27.4001579 L178.077233,27.4001579 L178.07838,25.2087121 L178.0801,25.2769261 L180.110904,25.2769261 L180.110904,34.3339083 L178.323842,34.3339083 L178.323842,37.5755053 L185.813901,37.5755053 L185.813901,34.3339083 L184.025119,34.3339083 L184.025119,25.2769261 L186.046747,25.2769261 L186.046747,29.7819149 C186.046747,34.1218144 189.56696,37.6408532 193.909015,37.6408532 C198.253364,37.6408532 201.77243,34.1218144 201.77243,29.7819149 C201.77243,25.4397225 198.253364,21.9218301 193.909015,21.9218301 L193.909015,21.9218301 Z" id="Fill-12" fill="#333333"></path>
        </g>
    </g>
</svg>